<svg xmlns="http://www.w3.org/2000/svg" viewBox="0 0 1200 700" role="img" aria-label="Retro poster of an astronaut cat above a coral planet">
  <defs>
    <linearGradient id="space" x1="0" y1="0" x2="0" y2="1">
      <stop offset="0" stop-color="#16113a"/>
      <stop offset=".6" stop-color="#3c1b51"/>
      <stop offset="1" stop-color="#f06b5d"/>
    </linearGradient>
  </defs>
  <rect width="1200" height="700" fill="url(#space)"/>
  <g fill="#ffd56d" opacity=".8">
    <circle cx="142" cy="90" r="4"/><circle cx="238" cy="164" r="3"/><circle cx="968" cy="98" r="4"/><circle cx="1038" cy="212" r="3"/><circle cx="746" cy="70" r="3"/>
  </g>
  <circle cx="600" cy="800" r="326" fill="#ff8a68"/>
  <path d="M310 572c140-34 262-20 366 28s194 52 286 5" fill="none" stroke="#ffd08d" stroke-width="28" opacity=".7"/>
  <g transform="translate(430 120)">
    <circle cx="170" cy="170" r="138" fill="#f2fbff"/>
    <circle cx="170" cy="170" r="108" fill="#1d2845"/>
    <path d="M94 144 74 72l70 42zM246 144l20-72-70 42z" fill="#d88b68"/>
    <ellipse cx="170" cy="186" rx="86" ry="72" fill="#d89b78"/>
    <circle cx="135" cy="172" r="12" fill="#111827"/><circle cx="205" cy="172" r="12" fill="#111827"/>
    <path d="M170 190l-16 18h32z" fill="#ffd0c2"/>
    <path d="M126 224c28 24 60 24 88 0" fill="none" stroke="#3a1e24" stroke-width="8" stroke-linecap="round"/>
    <rect x="58" y="292" width="224" height="160" rx="40" fill="#f2fbff"/>
    <circle cx="170" cy="354" r="42" fill="#25c6d9"/>
    <path d="M70 436h200" stroke="#ef6a5a" stroke-width="16" stroke-linecap="round"/>
  </g>
  <path d="M206 492c118-70 244-90 380-64 155 30 288 0 398-90" fill="none" stroke="#f5d36e" stroke-width="10" opacity=".75"/>
</svg>
