<svg xmlns="http://www.w3.org/2000/svg" viewBox="0 0 1200 700" role="img" aria-label="Noir subway magician with glowing cards">
  <defs>
    <linearGradient id="station" x1="0" y1="0" x2="1" y2="1">
      <stop offset="0" stop-color="#06070b"/>
      <stop offset=".55" stop-color="#20242f"/>
      <stop offset="1" stop-color="#07080c"/>
    </linearGradient>
    <filter id="cardglow"><feGaussianBlur stdDeviation="6" result="b"/><feMerge><feMergeNode in="b"/><feMergeNode in="SourceGraphic"/></feMerge></filter>
  </defs>
  <rect width="1200" height="700" fill="url(#station)"/>
  <path d="M0 472h1200v228H0z" fill="#101218"/>
  <path d="M0 240h1200" stroke="#3d4351" stroke-width="12"/>
  <path d="M90 150h1020v90H90z" fill="#151924"/>
  <g stroke="#515867" stroke-width="5" opacity=".65">
    <path d="M180 240v460M360 240v460M540 240v460M720 240v460M900 240v460M1080 240v460"/>
  </g>
  <path d="M0 600c220-40 420-44 600-12s370 30 600-18" fill="none" stroke="#4d5361" stroke-width="18"/>
  <g transform="translate(470 180)">
    <path d="M122 124c-76 60-110 150-102 270h280c-2-124-42-216-120-276z" fill="#141822"/>
    <path d="M70 94h200l-38-58H112z" fill="#0c0f15"/>
    <path d="M122 36h110L200-4h-46z" fill="#181d29"/>
    <ellipse cx="170" cy="126" rx="74" ry="66" fill="#c9b18f"/>
    <path d="M94 120c44 22 96 23 154 0" fill="#0e1118"/>
    <circle cx="142" cy="140" r="9" fill="#0a0d12"/><circle cx="198" cy="140" r="9" fill="#0a0d12"/>
    <path d="M132 380c36-42 86-42 128 0" fill="none" stroke="#f5f0dd" stroke-width="16" stroke-linecap="round"/>
  </g>
  <g filter="url(#cardglow)" transform="translate(260 220)">
    <rect x="0" y="90" width="82" height="116" rx="10" fill="#f7f0d8" transform="rotate(-18 41 148)"/>
    <rect x="620" y="80" width="82" height="116" rx="10" fill="#f7f0d8" transform="rotate(18 661 138)"/>
    <rect x="440" y="0" width="72" height="104" rx="10" fill="#f7f0d8" transform="rotate(8 476 52)"/>
    <g fill="#7ee7ff">
      <circle cx="44" cy="146" r="12"/><circle cx="662" cy="136" r="12"/><circle cx="477" cy="52" r="10"/>
    </g>
  </g>
</svg>
