<svg xmlns="http://www.w3.org/2000/svg" viewBox="0 0 1200 700" role="img" aria-label="Moonlit library greenhouse with a robotic owl">
  <defs>
    <linearGradient id="room" x1="0" y1="0" x2="1" y2="1">
      <stop offset="0" stop-color="#18324a"/>
      <stop offset=".6" stop-color="#314b4b"/>
      <stop offset="1" stop-color="#0e1620"/>
    </linearGradient>
  </defs>
  <rect width="1200" height="700" fill="url(#room)"/>
  <circle cx="930" cy="110" r="76" fill="#dcecff" opacity=".85"/>
  <path d="M90 120h290v470H90zM820 172h250v418H820z" fill="#263240"/>
  <g fill="#b88955">
    <rect x="120" y="170" width="220" height="20"/><rect x="120" y="250" width="220" height="20"/><rect x="120" y="330" width="220" height="20"/><rect x="120" y="410" width="220" height="20"/>
    <rect x="850" y="220" width="190" height="20"/><rect x="850" y="300" width="190" height="20"/><rect x="850" y="380" width="190" height="20"/>
  </g>
  <g opacity=".9">
    <path d="M474 590V204c0-84 68-152 152-152s152 68 152 152v386z" fill="#c6eff0" opacity=".22" stroke="#ddffff" stroke-width="8"/>
    <path d="M626 52v538M506 92c78 70 160 70 240 0M478 310h300" stroke="#ddffff" stroke-width="5" opacity=".6"/>
  </g>
  <g transform="translate(514 278)">
    <ellipse cx="110" cy="120" rx="92" ry="100" fill="#5a6470"/>
    <circle cx="76" cy="100" r="36" fill="#d9f4ff"/><circle cx="146" cy="100" r="36" fill="#d9f4ff"/>
    <circle cx="76" cy="100" r="13" fill="#203040"/><circle cx="146" cy="100" r="13" fill="#203040"/>
    <path d="M110 124 88 158h44z" fill="#ffc55c"/>
    <path d="M22 112c-54 10-84 46-98 108 64-4 112-28 142-74zM198 112c54 10 84 46 98 108-64-4-112-28-142-74z" fill="#7b8794"/>
    <path d="M58 42c34-42 70-42 104 0" fill="none" stroke="#a7f3ff" stroke-width="10" stroke-linecap="round"/>
  </g>
  <g fill="#9ad77c" opacity=".8">
    <path d="M420 600c12-110 62-168 142-184-18 88-60 150-142 184z"/>
    <path d="M746 608c-24-88-8-154 76-210 12 92-8 162-76 210z"/>
  </g>
</svg>
